<svg width="1613" height="507" viewBox="0 0 1613 507" fill="none" xmlns="http://www.w3.org/2000/svg">
<path d="M216.496 507C87.7687 507 0 398.01 0 254.96C0 130.399 63.3885 0 217.471 0C332.546 0 414.463 72.0115 414.463 150.835C415.438 204.357 374.48 230.632 333.521 230.632C298.413 230.632 262.331 212.142 249.653 175.163C219.422 90.501 233.075 34.0595 197.967 34.0595C155.058 34.0595 141.405 185.868 188.215 253.987C211.62 287.073 250.628 304.589 295.488 304.589C340.347 304.589 383.635 272.701 412.618 248.883C441.602 225.065 448.595 252.04 448.595 263.718C448.595 400.929 344.248 507 216.496 507Z" fill="#EF674D"/>
<path d="M724.958 330.816C725.23 336.26 725.367 341.296 725.367 345.923C725.367 369.333 718.138 388.659 703.68 403.903C691.951 416.152 677.357 422.277 659.898 422.277C645.986 422.277 620.481 415.335 583.382 401.453C548.738 388.387 528.416 380.221 522.415 376.955C501.683 365.794 491.317 352.184 491.317 336.124C491.317 332.858 491.726 329.455 492.545 325.916C496.364 310.129 502.638 298.56 511.367 291.21C520.096 283.589 534.69 278.281 555.149 275.287C560.877 274.47 563.742 273.381 563.742 272.02C563.742 270.387 556.24 266.304 541.237 259.771C525.142 252.694 515.322 246.569 511.776 241.397C508.23 236.225 506.457 231.734 506.457 227.923C506.457 216.218 519.823 210.366 546.556 210.366C565.651 210.366 586.792 213.36 609.979 219.349C633.165 225.337 651.442 232.687 664.808 241.397C683.903 253.919 697.952 266.44 706.954 278.961C717.592 293.66 723.594 310.945 724.958 330.816ZM652.942 327.55C652.942 320.2 649.669 313.803 643.122 308.359C636.575 302.915 628.664 300.193 619.39 300.193C610.115 300.193 602.204 302.915 595.657 308.359C589.111 313.803 585.837 320.2 585.837 327.55C585.837 335.171 589.111 341.704 595.657 347.148C602.204 352.592 610.115 355.314 619.39 355.314C628.664 355.314 636.575 352.592 643.122 347.148C649.669 341.704 652.942 335.171 652.942 327.55ZM1226.06 257.321C1229.88 266.032 1231.79 274.606 1231.79 283.044C1231.79 296.927 1226.88 311.49 1217.06 326.733C1211.06 336.26 1200.15 349.87 1184.32 367.564C1167.68 386.073 1152.82 399.548 1139.72 407.986C1123.08 418.33 1105.35 423.502 1086.53 423.502C1082.44 423.502 1078.07 423.229 1073.44 422.685C1065.8 421.868 1058.16 420.779 1050.52 419.418C1043.16 418.33 1037.16 415.063 1032.52 409.619C1029.52 405.808 1028.02 401.997 1028.02 398.187C1028.02 384.576 1048.89 370.013 1090.62 354.498C1106.44 349.598 1122.13 344.699 1137.68 339.799C1154.86 333.538 1163.46 325.916 1163.46 316.934C1163.46 313.939 1162.77 310.809 1161.41 307.543C1154.32 292.571 1142.18 285.086 1124.99 285.086C1117.9 285.086 1109.58 286.175 1100.03 288.352C1089.12 291.619 1078.21 294.885 1067.3 298.152C1054.48 301.69 1044.11 303.46 1036.2 303.46C1022.56 303.46 1011.79 298.152 1003.88 287.536C997.603 279.097 994.466 269.706 994.466 259.363C994.466 238.403 1005.92 217.307 1028.84 196.075C1039.2 186.82 1050.8 180.56 1063.62 177.293C1072.07 175.388 1085.85 174.027 1104.94 173.21C1107.13 173.21 1112.04 172.938 1119.67 172.394C1126.22 172.121 1131.27 171.985 1134.81 171.985C1156.09 171.985 1167.28 178.518 1168.37 191.584C1168.91 200.294 1163.05 204.65 1150.77 204.65C1148.59 204.65 1144.77 204.514 1139.32 204.241C1134.13 203.697 1130.18 203.425 1127.45 203.425C1115.99 203.425 1107.54 205.738 1102.08 210.366C1093.08 218.532 1086.39 227.787 1082.03 238.131C1080.39 241.669 1079.58 244.664 1079.58 247.113C1079.58 252.83 1083.94 255.688 1092.67 255.688C1098.94 255.688 1113.81 253.102 1137.27 247.93C1160.73 242.486 1178.32 239.764 1190.05 239.764C1209.15 239.764 1221.15 245.616 1226.06 257.321Z" fill="#5A8B94"/>
<path d="M952.958 387.162C932.772 403.222 914.087 411.252 896.901 411.252C891.445 411.252 885.717 410.572 879.716 409.211C865.804 405.944 858.848 392.742 858.848 369.605C858.848 362.528 859.53 351.64 860.893 336.941C862.53 321.969 863.349 311.626 863.349 305.909C863.349 288.488 858.166 279.778 847.8 279.778C846.163 279.778 844.39 279.914 842.48 280.186C838.661 280.731 832.797 282.5 824.886 285.494C819.703 288.761 817.111 293.252 817.111 298.968C817.111 302.779 818.885 309.584 822.431 319.384C825.977 329.183 827.75 336.805 827.75 342.249C827.75 344.426 827.477 346.604 826.932 348.782C821.203 373.552 817.521 388.115 815.884 392.47C809.883 408.258 802.108 416.152 792.561 416.152C790.106 416.152 787.651 415.608 785.195 414.519C772.92 410.163 766.782 398.459 766.782 379.404C766.782 376.682 766.919 372.191 767.192 365.93C767.464 359.67 767.601 354.906 767.601 351.64C767.601 338.029 764.327 316.525 757.781 287.127C751.507 257.729 748.37 237.314 748.37 225.882C748.37 200.022 759.69 185.595 782.331 182.601C785.877 182.057 789.287 181.785 792.561 181.785C802.927 181.785 813.565 184.37 824.477 189.542C826.659 190.631 837.025 196.484 855.574 207.099C885.58 224.521 911.904 245.48 934.545 269.979C960.733 298.288 973.827 323.739 973.827 346.332C973.827 362.392 966.871 376.002 952.958 387.162ZM1599.91 131.563C1599.91 143.54 1596.77 153.748 1590.5 162.186C1584.49 170.624 1577.27 174.843 1568.81 174.843C1560.08 174.843 1552.71 170.624 1546.71 162.186C1540.71 153.748 1537.71 143.54 1537.71 131.563C1537.71 119.586 1540.71 109.378 1546.71 100.94C1552.71 92.5017 1560.08 88.2825 1568.81 88.2825C1577.27 88.2825 1584.49 92.5017 1590.5 100.94C1596.77 109.378 1599.91 119.586 1599.91 131.563ZM1599.91 401.861C1596.63 413.294 1587.22 419.01 1571.67 419.01C1565.13 419.01 1558.58 417.921 1552.03 415.744C1543.03 412.477 1536.76 405.536 1533.21 394.92C1531.03 384.304 1528.71 373.824 1526.25 363.481C1524.07 353.137 1522.98 343.201 1522.98 333.674C1522.98 327.958 1525.85 308.359 1531.57 274.878C1540.58 222.071 1553.4 195.667 1570.04 195.667C1572.22 195.667 1574.4 196.075 1576.58 196.892C1586.95 200.975 1593.22 209.822 1595.41 223.432C1596.77 236.225 1598.27 249.155 1599.91 262.221C1602.91 274.742 1605.77 286.991 1608.5 298.968C1611.5 310.945 1613 321.697 1613 331.224C1613 348.101 1608.64 371.647 1599.91 401.861Z" fill="#F29A24"/>
<path d="M1493.14 360.214C1492.05 376.274 1484.95 391.245 1471.86 405.128C1460.13 417.921 1445.26 424.318 1427.26 424.318C1414.44 424.318 1389.62 417.921 1352.79 405.128C1323.6 395.056 1303.14 386.073 1291.41 378.18C1272.59 365.658 1260.86 348.782 1256.22 327.55C1254.59 320.472 1253.77 313.395 1253.77 306.318C1253.77 289.986 1258.41 273.109 1267.68 255.688C1278.87 234.728 1287.32 220.71 1293.05 213.632C1302.6 201.928 1315.01 193.217 1330.29 187.501C1342.56 182.873 1354.7 180.56 1366.7 180.56C1398.35 180.56 1425.9 194.986 1449.36 223.84C1468.18 246.705 1477.59 265.759 1477.59 281.003C1477.59 286.991 1476.5 292.98 1474.32 298.968C1469.95 311.49 1459.31 317.75 1442.4 317.75C1438.58 317.75 1432.31 317.478 1423.58 316.934C1414.85 316.117 1408.3 315.709 1403.94 315.709C1388.93 315.709 1377.34 319.247 1369.16 326.325C1365.34 329.591 1359.88 335.444 1352.79 343.882C1350.34 347.421 1349.11 350.279 1349.11 352.456C1349.11 356.267 1352.65 358.173 1359.75 358.173C1366.29 358.173 1382.66 355.314 1408.85 349.598C1435.31 343.882 1454.27 341.024 1465.72 341.024C1485.09 341.024 1494.23 347.421 1493.14 360.214ZM1401.07 273.245C1401.07 267.257 1398.48 262.221 1393.3 258.138C1388.12 254.055 1381.84 252.013 1374.48 252.013C1367.11 252.013 1360.84 254.055 1355.65 258.138C1350.47 262.221 1347.88 267.257 1347.88 273.245C1347.88 279.233 1350.47 284.269 1355.65 288.352C1360.84 292.435 1367.11 294.477 1374.48 294.477C1381.84 294.477 1388.12 292.435 1393.3 288.352C1398.48 284.269 1401.07 279.233 1401.07 273.245Z" fill="#EF674D"/>
</svg>
